<svg width="50" height="50" viewBox="0 0 50 50" fill="none" xmlns="http://www.w3.org/2000/svg">
<g clip-path="url(#clip0_251_55)">
<path d="M49.5081 24.6721L41.5413 5.60378L33.8542 8.81559C33.9507 7.90895 33.9507 6.62616 33.4588 5.70023C32.3592 3.64583 29.7936 2.86458 27.7392 3.96412C25.6848 5.06366 24.9036 7.62924 26.0031 9.68364C26.3889 10.407 26.9676 10.9954 27.6814 11.3908L19.4638 14.8148C19.2805 14.2361 19.0008 13.6863 18.6439 13.1944C18.75 13.1366 18.8368 13.0691 18.9237 12.9823C19.1262 12.7797 19.2516 12.5096 19.2516 12.2203L19.213 9.03742H19.8689C20.0232 9.03742 20.1679 8.96991 20.274 8.86381C20.3897 8.75772 20.4476 8.60339 20.4476 8.44907L20.3318 0L19.1744 0.0192901L19.2805 7.88001L3.81949 7.99576L3.71339 0L2.55598 0.0192901L2.66208 8.59375C2.67172 8.91204 2.92249 9.15316 3.24078 9.16281H3.91594C3.91594 9.19174 3.95452 12.3457 3.95452 12.3457C3.96416 12.6929 4.13777 13.0112 4.41748 13.2137L3.9931 13.8889C3.82913 14.1493 3.60729 14.7955 3.60729 14.7955H3.59765L1.90976 21.0937L2.35344 22.4633L1.72651 22.7431C1.1478 23.0035 0.68484 23.4761 0.463004 24.0741C0.241167 24.6721 0.260457 25.3279 0.520874 25.9066L9.09533 45.0617L17.1297 41.4641C17.419 41.3387 17.6216 41.0687 17.6505 40.7504C17.6794 40.4321 17.5348 40.1235 17.2743 39.9498C16.2423 39.2265 15.5286 38.4452 15.3164 37.8086C14.7763 36.2076 15.6347 34.4618 17.2454 33.9217C18.8465 33.3816 20.5922 34.24 21.1324 35.8507C21.3928 36.6127 21.3349 37.4518 20.9781 38.1752C20.8237 38.4838 20.8816 38.8503 21.1227 39.0914C21.3542 39.3422 21.7207 39.4194 22.0294 39.2747L28.7037 36.2847C29.022 36.1497 29.2921 35.9182 29.485 35.6289L30.4977 35.2141C30.6135 36.169 30.9703 37.0756 31.5394 37.8569C31.4333 37.9147 31.3465 37.9919 31.2597 38.0787C31.0475 38.2812 30.9318 38.561 30.9318 38.8503L30.98 42.0235H30.3241C30.1698 42.0235 30.0251 42.091 29.919 42.1971C29.8033 42.3032 29.7454 42.4576 29.7551 42.6119L29.8612 49.8939H31.0186L30.9125 43.1906L46.3735 43.0652L46.4796 49.9035H47.637L47.5309 42.4865C47.5213 42.1682 47.2705 41.9174 46.9522 41.9078H46.2771C46.2771 41.8885 46.2867 41.8596 46.2867 41.8403L46.2385 38.7346C46.2385 38.3873 46.0649 38.0594 45.7755 37.8665C45.9973 37.5096 46.171 37.2396 46.1999 37.1817C46.3639 36.9309 46.4892 36.6512 46.5664 36.3522L46.5857 36.2847H46.5953L48.2832 29.9768L47.6659 28.0285L48.2253 27.7971C49.4406 27.2955 50.0193 25.9163 49.5178 24.701C49.5178 24.6914 49.5081 24.6817 49.5081 24.6721ZM9.10498 19.4444L9.00853 19.6084C8.35266 20.7658 7.16632 21.277 7.15668 21.277L6.73229 21.4506C6.73229 21.4506 7.3978 25.4726 7.58106 26.6397C7.68716 27.3341 7.56177 28.0478 7.21455 28.6555C6.96378 29.0123 6.55868 29.2245 6.12465 29.2245C5.82566 29.2149 5.70027 29.0606 5.65205 28.9738L3.77126 23.0999L3.41439 21.9907L3.1154 21.0648L4.74541 14.9981C4.79364 14.8245 4.8708 14.6605 4.96725 14.5062C4.96725 14.5062 5.26624 14.0239 5.60382 13.5031L17.3322 13.4066C17.8338 13.9371 18.2003 14.5833 18.4028 15.2874L9.10498 19.4444ZM17.882 12.2589H17.8627V12.2396L5.35305 12.336C5.26624 12.3457 5.18908 12.3167 5.12157 12.2685V12.1528L5.08299 9.23997C5.1505 9.20139 5.22766 9.17245 5.30482 9.17245L17.8338 9.076C17.9206 9.06636 17.9977 9.09529 18.0652 9.14352L18.1135 12.1914C18.046 12.2299 17.9591 12.2589 17.882 12.2589ZM28.2311 35.2238L22.3187 37.8762C22.8878 35.6096 21.5182 33.314 19.2516 32.745C16.985 32.1759 14.6895 33.5455 14.1204 35.8121C13.9179 36.5934 13.9564 37.4228 14.2072 38.1848C14.5351 39.1397 15.4128 39.9884 16.2134 40.6057L9.66439 43.5378L1.56254 25.434C1.42751 25.135 1.41786 24.7975 1.54325 24.4888C1.65899 24.1802 1.89047 23.939 2.18947 23.804L2.70066 23.5725L4.59109 29.4657C4.88044 30.0154 5.43986 30.3723 6.06678 30.3819C6.06678 30.3819 7.57141 30.4109 8.1887 29.2631V29.2438C8.67095 28.3951 8.85421 27.4113 8.69989 26.4468C8.55521 25.5208 8.15976 23.0999 7.9958 22.1258C8.7674 21.7014 9.42327 21.0841 9.90552 20.3511L19.6953 15.9626C19.6953 15.9626 19.9653 15.8083 20.1775 15.8565C20.3029 15.9047 20.4186 16.0494 20.4765 16.1748L23.5051 23.0999C23.6304 23.4182 23.9487 23.6111 24.2863 23.5918C24.6239 23.5725 24.9132 23.341 25.0193 23.0228C25.2797 22.1451 25.9163 21.441 26.7651 21.0937C28.2697 20.4186 30.0444 21.0841 30.7196 22.5887C31.3465 23.9776 30.8353 25.6076 29.5236 26.3889C28.6845 26.8615 27.2184 26.7458 26.6301 26.6782C26.3214 26.6397 26.0128 26.7747 25.8199 27.0255C25.8199 27.0351 25.5402 27.3534 25.7234 27.9032L28.588 34.2882C28.6941 34.5293 28.6555 34.8187 28.4916 35.0212C28.4337 35.108 28.3372 35.1852 28.2311 35.2238ZM45.0811 38.8985L45.1293 41.8113C45.0618 41.8596 44.9846 41.8885 44.8978 41.8789L32.3689 41.9753C32.2821 41.985 32.2049 41.956 32.1374 41.9078L32.0892 38.9082L45.0811 38.8985ZM45.4476 36.0532C45.3993 36.2268 45.3222 36.3908 45.2257 36.5451V36.5644C45.2257 36.5644 44.9364 37.037 44.5988 37.5579L44.4831 37.7411H32.9572L32.8608 37.6447C32.1181 36.8538 31.6744 35.8218 31.6166 34.7319L39.9692 31.25C39.7859 31.5779 39.6123 31.9252 39.4483 32.2724L40.4997 32.7643C40.7118 32.311 40.9433 31.8673 41.1845 31.4429C41.4256 31.0185 41.7535 30.652 42.1297 30.3434C42.4094 30.1119 42.7084 29.9286 43.0363 29.7743L43.4607 29.6007L43.3932 29.1474C43.3835 29.1377 43.3546 28.9255 43.2967 28.6073C43.1231 27.5656 42.7566 25.3086 42.6119 24.4213C42.5058 23.7269 42.6312 23.0131 42.9784 22.4055C43.2292 22.0486 43.6343 21.8268 44.0683 21.8268C44.3673 21.8364 44.4927 21.9907 44.5409 22.0872L46.2385 27.3727L46.5953 28.4819L47.0776 29.9961L45.4476 36.0532ZM48.4472 26.061C48.3218 26.36 48.0807 26.6011 47.7817 26.7265L47.3091 26.929L45.5922 21.5856C45.3029 21.0359 44.7435 20.6887 44.1262 20.6694C42.6409 20.7079 41.9946 21.7978 41.9946 21.7978C41.5124 22.6466 41.3291 23.6304 41.4835 24.5949C41.6281 25.5305 42.0236 27.9417 42.1875 28.9159C41.9657 29.0413 41.7535 29.186 41.551 29.3403L29.784 34.2593C29.7551 34.1049 27.0737 28.0671 27.0737 28.0671C28.0286 28.1346 29.1281 28.0864 29.948 27.6524L30.3145 27.4306C30.7581 27.1316 31.1439 26.7554 31.4429 26.3117L31.5683 26.1188C31.7902 25.7523 31.9541 25.3569 32.0602 24.9421C32.0699 24.9228 32.0699 24.9035 32.0699 24.8843H32.0795C32.1856 24.5081 32.2338 24.1223 32.2338 23.7269C32.2338 23.3025 32.1663 22.8684 32.0409 22.4633C31.3465 20.2353 28.9738 19.0008 26.7458 19.6952C26.2138 19.8634 25.7202 20.1349 25.2932 20.494C24.8662 20.8531 24.5142 21.2929 24.2574 21.7882L23.5726 20.2546C23.3507 19.7049 21.875 16.4641 21.5471 15.7118C21.4699 15.5671 21.3831 15.4225 21.277 15.2971L28.9063 12.1528C29.2246 12.0177 29.4175 11.6995 29.3982 11.3619C29.3885 11.0243 29.1571 10.735 28.8388 10.6385C27.2184 10.1466 26.3021 8.43943 26.794 6.80941C26.8422 6.65509 26.9001 6.51042 26.9676 6.36574C27.3438 5.57485 28.0382 4.97685 28.887 4.74537C30.2759 4.34992 31.7516 4.96721 32.4364 6.24035C32.8897 7.08912 32.7354 8.54552 32.6486 9.13387C32.61 9.45216 32.7354 9.7608 32.9862 9.9537C33.2369 10.1466 33.5649 10.1948 33.8542 10.0694L40.9144 7.11806L48.4375 25.1157C48.5726 25.4147 48.5726 25.762 48.4472 26.061Z" fill="#0057FF"/>
<path d="M12.2319 45.8534L13.2603 45.3227L14.5962 47.911L13.5676 48.4418L12.2319 45.8534ZM3.88312 47.9576L5.21896 45.3693L6.24751 45.9L4.91167 48.4884L3.88312 47.9576ZM8.60274 49.939L8.67392 47.0271L9.83094 47.0553L9.75976 49.9672L8.60274 49.939ZM36.7022 2.1644L37.7306 1.63364L39.0665 4.22198L38.0379 4.75275L36.7022 2.1644ZM45.054 4.26085L46.3899 1.6725L47.4182 2.20337L46.0824 4.79162L45.054 4.26085ZM41.4032 3.03718L41.4744 0.125244L42.6314 0.153504L42.5603 3.06535L41.4032 3.03718Z" fill="#0057FF"/>
</g>
<defs>
<clipPath id="clip0_251_55">
<rect width="50" height="50" fill="white"/>
</clipPath>
</defs>
</svg>
