<svg width="116" height="50" viewBox="0 0 116 50" fill="none" xmlns="http://www.w3.org/2000/svg">
    <g clip-path="url(#clip0_1177_799)">
    <path d="M65.4272 38.6529H67.876V49.818H65.4272V38.6529ZM69.5961 38.6529H72.3079L75.2221 46.5211L78.1362 38.6732H80.7873L76.2744 49.9191H74.109L69.5961 38.6529ZM81.1718 44.2557C81.1661 43.4788 81.317 42.7087 81.6155 41.9914C81.914 41.2741 82.354 40.6242 82.9093 40.0806C83.4646 39.5369 84.1237 39.1106 84.8475 38.8271C85.5712 38.5436 86.3446 38.4087 87.1216 38.4304C87.8973 38.3975 88.6716 38.5226 89.3974 38.798C90.1233 39.0734 90.7855 39.4935 91.3439 40.0327C91.9023 40.5718 92.3452 41.2189 92.6456 41.9344C92.946 42.6499 93.0978 43.419 93.0916 44.195C93.0031 45.7096 92.3388 47.133 91.2346 48.1741C90.1304 49.2151 88.6699 49.7949 87.1519 49.7949C85.634 49.7949 84.1735 49.2151 83.0693 48.1741C81.9651 47.133 81.3008 45.7096 81.2123 44.195L81.1718 44.2557ZM90.481 44.2557C90.5004 43.7925 90.4248 43.3303 90.2588 42.8974C90.0928 42.4646 89.8399 42.0702 89.5158 41.7387C89.1916 41.4071 88.803 41.1453 88.3739 40.9695C87.9447 40.7936 87.4841 40.7074 87.0204 40.716C86.5688 40.7158 86.1218 40.8065 85.7061 40.9827C85.2904 41.159 84.9146 41.4172 84.601 41.742C84.2874 42.0667 84.0425 42.4513 83.881 42.8728C83.7195 43.2943 83.6447 43.744 83.661 44.195C83.6447 44.6487 83.7201 45.101 83.8826 45.525C84.0451 45.9489 84.2914 46.3357 84.6069 46.6623C84.9224 46.989 85.3005 47.2487 85.7186 47.426C86.1368 47.6033 86.5864 47.6945 87.0406 47.6942C87.4962 47.7082 87.9499 47.6289 88.3736 47.461C88.7974 47.2932 89.1822 47.0404 89.5045 46.7183C89.8268 46.3962 90.0798 46.0115 90.2477 45.588C90.4156 45.1644 90.495 44.711 90.481 44.2557ZM95.1153 38.6529H100.215C100.806 38.6145 101.399 38.6949 101.959 38.8894C102.519 39.084 103.034 39.3887 103.473 39.7856C103.792 40.1268 104.04 40.5276 104.204 40.9649C104.367 41.4023 104.442 41.8677 104.424 42.3342C104.463 43.0954 104.25 43.8482 103.818 44.4767C103.387 45.1053 102.761 45.5748 102.036 45.8131L104.768 49.8584H101.895L99.4866 46.2783H97.564V49.8584H95.1153V38.6529ZM100.053 44.0737C101.247 44.0737 101.935 43.4264 101.935 42.496C101.935 41.4442 101.207 40.8981 100.013 40.8981H97.564V44.1141L100.053 44.0737ZM109.261 45.4086L104.971 38.6529H107.845L110.496 43.123L113.207 38.6529H116L111.71 45.3682V49.818H109.281L109.261 45.4086Z" fill="#D6BE92"/>
    <path d="M13.6401 31.3309C14.8803 31.3915 16.1165 31.1487 17.2415 30.6235C18.3665 30.0983 19.3463 29.3066 20.0957 28.3171L24.5479 30.9061C23.3333 32.6654 21.6915 34.0876 19.7766 35.0393C17.8616 35.991 15.7362 36.441 13.5996 36.3471C11.8168 36.4612 10.0298 36.2008 8.35385 35.5826C6.67788 34.9644 5.15008 34.0021 3.86888 32.7578C2.58768 31.5135 1.5815 30.0147 0.915166 28.358C0.248835 26.7014 -0.062866 24.9235 0.000146779 23.1391C-0.056414 21.3939 0.24651 19.6557 0.890119 18.0323C1.53373 16.409 2.50429 14.9351 3.74156 13.7023C4.97883 12.4695 6.45641 11.504 8.08259 10.8657C9.70877 10.2274 11.4489 9.93 13.1948 9.99189C14.896 9.99824 16.5782 10.3486 18.1403 11.0219C19.7024 11.6951 21.112 12.6774 22.2843 13.9095C23.4565 15.1416 24.3672 16.5981 24.9614 18.1912C25.5556 19.7843 25.8211 21.4812 25.7419 23.1796C25.7275 23.9318 25.6598 24.6821 25.5396 25.4247H5.64634C6.03324 27.2119 7.05803 28.7971 8.52917 29.884C10.0003 30.971 11.8171 31.4853 13.6401 31.3309ZM20.2374 21.0356C20.0166 19.3166 19.162 17.7419 17.8407 16.6196C16.5194 15.4973 14.8266 14.9082 13.0937 14.9676C11.309 14.8741 9.55247 15.4413 8.15989 16.5607C6.76731 17.6801 5.83641 19.2733 5.54516 21.0356H20.2374Z" fill="#69747F"/>
    <path d="M27.3407 3.43858C27.4073 2.56956 27.7998 1.75773 28.4395 1.16546C29.0792 0.573184 29.9191 0.244141 30.7911 0.244141C31.6632 0.244141 32.503 0.573184 33.1428 1.16546C33.7825 1.75773 34.175 2.56956 34.2416 3.43858C34.278 3.91366 34.2158 4.39115 34.059 4.84109C33.9021 5.29103 33.6539 5.70372 33.3299 6.05327C33.0059 6.40283 32.6132 6.68172 32.1763 6.87244C31.7395 7.06317 31.2679 7.16162 30.7911 7.16162C30.3144 7.16162 29.8428 7.06317 29.4059 6.87244C28.9691 6.68172 28.5763 6.40283 28.2524 6.05327C27.9284 5.70372 27.6802 5.29103 27.5233 4.84109C27.3664 4.39115 27.3043 3.91366 27.3407 3.43858ZM28.0895 10.6392H33.4928V35.619H28.0895V10.6392Z" fill="#69747F"/>
    <path d="M62.5333 10.6391V34.3851C62.5333 42.4757 56.2395 46.1771 49.6827 46.1771C44.1984 46.1771 39.9485 44.1545 37.8439 40.1092L42.4984 37.5202C43.5912 39.6642 45.4328 41.3632 49.7839 41.3632C54.1349 41.3632 57.2312 38.8147 57.2312 34.466V31.432C56.2669 32.8234 54.9686 33.9506 53.4553 34.7104C51.942 35.4702 50.2621 35.8382 48.5696 35.7807C46.8904 35.773 45.2296 35.4317 43.6836 34.7766C42.1375 34.1216 40.7372 33.1659 39.5641 31.9652C38.3909 30.7644 37.4683 29.3425 36.8499 27.7822C36.2315 26.2218 35.9296 24.5542 35.9618 22.8762C35.9323 21.1999 36.2362 19.5344 36.8558 17.9764C37.4755 16.4184 38.3985 14.9989 39.5714 13.8003C40.7443 12.6017 42.1437 11.6478 43.6883 10.9941C45.233 10.3403 46.8922 9.99965 48.5696 9.99187C50.2655 9.93097 51.9495 10.2973 53.4666 11.0573C54.9837 11.8172 56.2852 12.9463 57.2514 14.3406V10.6391H62.5333ZM57.2312 22.8762C57.2509 21.8342 57.0584 20.7991 56.6654 19.8338C56.2724 18.8686 55.6871 17.9932 54.9451 17.2611C54.2031 16.5289 53.3199 15.9552 52.3491 15.5748C51.3783 15.1945 50.3403 15.0154 49.2982 15.0485C48.2543 15.0126 47.2141 15.1896 46.241 15.5687C45.2678 15.9478 44.3821 16.5211 43.6379 17.2535C42.8937 17.986 42.3066 18.8623 41.9124 19.829C41.5181 20.7956 41.3251 21.8325 41.3449 22.8762C41.3223 23.9216 41.5133 24.9606 41.9063 25.9297C42.2992 26.8987 42.8859 27.7775 43.6304 28.5121C44.3749 29.2467 45.2616 29.8218 46.2361 30.2022C47.2106 30.5825 48.2526 30.7601 49.2982 30.7241C50.3421 30.7573 51.3818 30.5776 52.354 30.196C53.3261 29.8144 54.2103 29.2389 54.9526 28.5046C55.6949 27.7702 56.2798 26.8924 56.6715 25.9248C57.0633 24.9571 57.2537 23.9198 57.2312 22.8762Z" fill="#69747F"/>
    <path d="M78.6827 31.331C79.9222 31.3865 81.1567 31.1413 82.2809 30.6165C83.405 30.0917 84.3854 29.3029 85.1384 28.3173L89.5906 30.9063C88.376 32.6656 86.7342 34.0878 84.8192 35.0394C82.9043 35.9911 80.7788 36.4411 78.6423 36.3472C76.8665 36.4605 75.0866 36.2022 73.4163 35.5889C71.7461 34.9755 70.2223 34.0206 68.9424 32.7851C67.6624 31.5496 66.6545 30.0608 65.983 28.4138C65.3116 26.7668 64.9913 24.9979 65.0428 23.2202C64.9863 21.475 65.2892 19.7367 65.9328 18.1134C66.5764 16.49 67.547 15.0162 68.7842 13.7834C70.0215 12.5505 71.4991 11.585 73.1253 10.9468C74.7514 10.3085 76.4915 10.0111 78.2375 10.0729C79.9386 10.0793 81.6209 10.4296 83.183 11.1029C84.7451 11.7762 86.1547 12.7584 87.3269 13.9906C88.4992 15.2227 89.4098 16.6791 90.0041 18.2723C90.5983 19.8654 90.8638 21.5623 90.7846 23.2607C90.7701 24.0129 90.7025 24.7631 90.5822 25.5058H70.689C71.0928 27.278 72.1247 28.8442 73.5941 29.915C75.0635 30.9858 76.8711 31.4888 78.6827 31.331ZM85.3408 21.0357C85.1154 19.3151 84.2565 17.7401 82.932 16.6182C81.6074 15.4962 79.912 14.9078 78.1768 14.9678C76.3922 14.8742 74.6356 15.4414 73.243 16.5609C71.8505 17.6803 70.9196 19.2735 70.6283 21.0357H85.3408Z" fill="#69747F"/>
    <path d="M115.878 20.2266V35.5583H110.475V20.8334C110.564 20.0696 110.483 19.2955 110.237 18.5669C109.991 17.8384 109.586 17.1734 109.052 16.6201C108.518 16.0668 107.867 15.6388 107.147 15.367C106.428 15.0953 105.657 14.9865 104.89 15.0486C101.328 15.0486 98.5351 17.0712 98.5351 22.229V35.619H93.0913V10.6392H98.4947V13.835C99.3332 12.5686 100.492 11.5461 101.853 10.8712C103.214 10.1964 104.729 9.89302 106.246 9.99193C111.871 9.99193 115.878 13.7945 115.878 20.2266Z" fill="#69747F"/>
    <path d="M80.4634 47.2885C80.4634 47.2885 80.4634 47.2885 80.4634 47.1885C80.4653 47.2218 80.4653 47.2552 80.4634 47.2885Z" fill="#231F20"/>
    <path opacity="0.7" d="M80.5244 47.2885C80.5244 47.2885 80.5244 47.2885 80.5244 47.1885C80.5264 47.2218 80.5264 47.2552 80.5244 47.2885Z" fill="#231F20"/>
    </g>
    <defs>
    <clipPath id="clip0_1177_799">
    <rect width="116" height="50" fill="white"/>
    </clipPath>
    </defs>
    </svg>
    