<svg width="50" height="50" viewBox="0 0 50 50" fill="none" xmlns="http://www.w3.org/2000/svg">
<g clip-path="url(#clip0_22_65)">
<path fill-rule="evenodd" clip-rule="evenodd" d="M34.8356 8.34902C34.7304 8.34902 34.6252 8.32134 34.5283 8.26597C34.2349 8.09711 34.1324 7.72063 34.3041 7.42443L35.4307 5.47005C35.6024 5.17661 35.9789 5.07696 36.2723 5.24582C36.5657 5.41468 36.6681 5.79116 36.4965 6.08737L35.3698 8.04175C35.2563 8.23829 35.0487 8.34902 34.8356 8.34902ZM33.5899 37.6924C33.5123 37.6924 33.4348 37.6786 33.3573 37.6481L25 34.2404L16.6427 37.6481C16.4461 37.7284 16.2191 37.7007 16.0475 37.5761C15.8759 37.4488 15.7818 37.2439 15.7956 37.0336L16.4517 28.0312L10.6301 21.1328C10.4916 20.9722 10.4501 20.748 10.5138 20.5459C10.5802 20.3438 10.7463 20.1916 10.9539 20.139L19.7182 17.9825L24.4768 10.3145C24.5903 10.1318 24.7868 10.0238 25 10.0238C25.2132 10.0238 25.4097 10.1318 25.5232 10.3145L30.2818 17.9825L39.0461 20.139C39.2537 20.1916 39.4198 20.3438 39.4862 20.5459C39.5499 20.7507 39.5084 20.9722 39.3699 21.1355L33.5483 28.0312L34.2044 37.0336C34.221 37.2439 34.1241 37.4516 33.9525 37.5761C33.8445 37.6536 33.72 37.6924 33.5899 37.6924ZM25 32.9615C25.0803 32.9615 25.1578 32.9753 25.2325 33.0058L32.9061 36.1339L32.3026 27.8707C32.2915 27.7101 32.3414 27.5523 32.4466 27.4277L37.7893 21.0968L29.7448 19.1175C29.5897 19.0787 29.4541 18.9818 29.3711 18.8434L25 11.8038L20.6317 18.8434C20.5459 18.9818 20.4103 19.0787 20.2552 19.1175L12.2107 21.0968L17.5562 27.4277C17.6586 27.5523 17.7112 27.7101 17.6974 27.8707L17.0967 36.1339L24.7675 33.0058C24.8422 32.9753 24.9225 32.9615 25 32.9615ZM24.8837 5.7441C24.546 5.7441 24.2692 5.46728 24.2692 5.12955V0.61455C24.2692 0.276824 24.546 0 24.8837 0C25.2242 0 25.5011 0.276824 25.5011 0.61455V5.12955C25.5011 5.46728 25.2242 5.7441 24.8837 5.7441ZM38.9713 11.4827C38.8135 11.4827 38.6557 11.4218 38.5339 11.3027C38.2959 11.0619 38.2959 10.6716 38.5339 10.4307L41.7257 7.24172C41.9666 7.00089 42.3569 7.00089 42.5977 7.24172C42.8358 7.48256 42.8358 7.87011 42.5977 8.11095L39.4059 11.3027C39.2841 11.4218 39.1291 11.4827 38.9713 11.4827ZM49.3854 25.5011H44.8732C44.5327 25.5011 44.2559 25.2242 44.2559 24.8837C44.2559 24.546 44.5327 24.2692 44.8732 24.2692H49.3854C49.7259 24.2692 50 24.546 50 24.8837C50 25.2242 49.7259 25.5011 49.3854 25.5011ZM42.3237 42.7777C42.1659 42.7777 42.0109 42.7168 41.889 42.5977L38.6973 39.4059C38.4592 39.1651 38.4592 38.7748 38.6973 38.5339C38.9381 38.2959 39.3284 38.2959 39.5693 38.5339L42.7583 41.7257C42.9991 41.9666 42.9991 42.3569 42.7583 42.5977C42.6392 42.7168 42.4815 42.7777 42.3237 42.7777ZM25.1163 50C24.7758 50 24.4989 49.7259 24.4989 49.3854V44.8732C24.4989 44.5327 24.7758 44.2559 25.1163 44.2559C25.4568 44.2559 25.7308 44.5327 25.7308 44.8732V49.3854C25.7308 49.7259 25.4568 50 25.1163 50ZM7.83966 42.941C7.68187 42.941 7.52408 42.8801 7.40505 42.7583C7.16421 42.5202 7.16421 42.1299 7.40505 41.889L10.5941 38.6973C10.8349 38.4592 11.2252 38.4592 11.4661 38.6973C11.7069 38.9381 11.7069 39.3284 11.4661 39.5693L8.27428 42.7583C8.15524 42.8801 7.99745 42.941 7.83966 42.941ZM5.12955 25.7308H0.61455C0.276824 25.7308 0 25.4568 0 25.1163C0 24.7758 0.276824 24.4989 0.61455 24.4989H5.12955C5.46728 24.4989 5.7441 24.7758 5.7441 25.1163C5.7441 25.4568 5.46728 25.7308 5.12955 25.7308ZM10.8681 11.646C10.7103 11.646 10.5525 11.5851 10.4307 11.4661L7.24172 8.27428C7.00089 8.03344 7.00089 7.64312 7.24172 7.40505C7.47979 7.16421 7.87011 7.16421 8.11095 7.40505L11.3027 10.5941C11.5436 10.8349 11.5436 11.2252 11.3027 11.4661C11.1809 11.5851 11.0259 11.646 10.8681 11.646ZM14.9651 8.46252C14.752 8.46252 14.5443 8.35456 14.4308 8.15524L13.3042 6.20086C13.1325 5.90743 13.235 5.53095 13.5284 5.36209C13.8218 5.19045 14.1983 5.29288 14.3699 5.58631L15.4966 7.54069C15.6683 7.83413 15.5658 8.21061 15.2724 8.38224C15.1755 8.4376 15.0703 8.46252 14.9651 8.46252ZM19.7459 6.45001C19.4746 6.45001 19.2254 6.27007 19.1507 5.99325L18.5666 3.81464C18.478 3.48799 18.6746 3.15026 19.0012 3.06168C19.3306 2.97309 19.6684 3.16964 19.7569 3.49629L20.341 5.6749C20.4269 6.00432 20.2331 6.34204 19.9037 6.43063C19.8511 6.44447 19.7985 6.45001 19.7459 6.45001ZM5.77732 20.5847C5.72196 20.5847 5.66936 20.5763 5.61676 20.5625L3.43816 19.9784C3.10874 19.8898 2.91496 19.5549 3.00078 19.2254C3.08936 18.896 3.42708 18.7022 3.75651 18.7908L5.93511 19.3749C6.26177 19.4607 6.45831 19.7985 6.36973 20.1279C6.29498 20.4019 6.04861 20.5847 5.77732 20.5847ZM7.7317 15.779C7.62928 15.779 7.52132 15.7541 7.42443 15.6959L5.47005 14.5693C5.17661 14.4004 5.07696 14.0239 5.24582 13.7277C5.41468 13.4343 5.79116 13.3346 6.08737 13.5035L8.04175 14.6302C8.33518 14.8018 8.43484 15.1783 8.26597 15.4717C8.15247 15.6683 7.94486 15.779 7.7317 15.779ZM5.89359 36.7789C5.6832 36.7789 5.47558 36.6709 5.36209 36.4716C5.19045 36.1782 5.29288 35.8017 5.58631 35.6328L7.54069 34.5034C7.83413 34.3345 8.21061 34.4342 8.38224 34.7276C8.5511 35.0238 8.45144 35.4003 8.15524 35.5691L6.20086 36.6986C6.10398 36.754 5.99878 36.7789 5.89359 36.7789ZM3.65408 31.4555C3.38279 31.4555 3.13642 31.2728 3.06168 30.9988C2.97309 30.6694 3.16687 30.3316 3.49629 30.2458L5.6749 29.6617C6.00432 29.5731 6.34204 29.7669 6.43063 30.0963C6.51644 30.423 6.32267 30.7607 5.99325 30.8493L3.81464 31.4334C3.76204 31.4472 3.70945 31.4555 3.65408 31.4555ZM19.386 47.0214C19.3334 47.0214 19.278 47.0131 19.2254 46.9992C18.896 46.9106 18.7022 46.5729 18.7908 46.2463L19.3749 44.0649C19.4607 43.7382 19.7985 43.5445 20.1279 43.6303C20.4573 43.7189 20.6511 44.0566 20.5625 44.3832L19.9784 46.5646C19.9064 46.8387 19.6573 47.0214 19.386 47.0214ZM14.035 44.8372C13.9298 44.8372 13.8246 44.8095 13.7277 44.7542C13.4343 44.5853 13.3319 44.2088 13.5035 43.9154L14.6302 41.961C14.8018 41.6648 15.1783 41.5652 15.4717 41.734C15.7651 41.9057 15.8676 42.2821 15.6959 42.5756L14.5693 44.53C14.4558 44.7265 14.2481 44.8372 14.035 44.8372ZM36.1643 44.721C35.9512 44.721 35.7463 44.6102 35.6328 44.4137L34.5034 42.4593C34.3345 42.1659 34.4342 41.7894 34.7276 41.6205C35.0238 41.4489 35.4003 41.5513 35.5691 41.8448L36.6986 43.7991C36.8675 44.0926 36.765 44.4691 36.4716 44.6407C36.3747 44.696 36.2695 44.721 36.1643 44.721ZM30.8382 46.9605C30.5669 46.9605 30.3178 46.7778 30.2458 46.5037L29.6617 44.3251C29.5731 43.9957 29.7669 43.658 30.0963 43.5721C30.423 43.4836 30.7607 43.6773 30.8493 44.0068L31.4334 46.1854C31.522 46.5148 31.3254 46.8525 30.9988 46.9383C30.9462 46.9549 30.8908 46.9605 30.8382 46.9605ZM46.4041 31.2313C46.3515 31.2313 46.2989 31.2258 46.2463 31.2119L44.0649 30.6278C43.7382 30.5393 43.5417 30.2015 43.6303 29.8721C43.7189 29.5455 44.0566 29.3517 44.3832 29.4375L46.5646 30.0216C46.8913 30.1102 47.0878 30.4479 46.9992 30.7746C46.9245 31.0514 46.6753 31.2313 46.4041 31.2313ZM44.2199 36.5796C44.1175 36.5796 44.0123 36.5546 43.9154 36.4965L41.961 35.3698C41.6648 35.1982 41.5652 34.8217 41.734 34.5283C41.9057 34.2349 42.2821 34.1324 42.5756 34.3041L44.53 35.4307C44.8234 35.6024 44.9258 35.9789 44.7542 36.2723C44.6407 36.4688 44.4331 36.5796 44.2199 36.5796ZM42.152 15.5797C41.9389 15.5797 41.734 15.4689 41.6205 15.2724C41.4489 14.979 41.5513 14.6025 41.8448 14.4308L43.7991 13.3042C44.0926 13.1325 44.4691 13.235 44.6407 13.5284C44.8095 13.8218 44.7071 14.1983 44.4137 14.3699L42.4593 15.4966C42.3624 15.552 42.2572 15.5797 42.152 15.5797ZM44.1645 20.3604C43.8933 20.3604 43.6441 20.1805 43.5721 19.9037C43.4836 19.577 43.6773 19.2393 44.0068 19.1507L46.1854 18.5666C46.5148 18.478 46.8525 18.6746 46.9383 19.0012C47.0269 19.3306 46.8331 19.6684 46.5037 19.7569L44.3251 20.341C44.2725 20.3549 44.2171 20.3604 44.1645 20.3604ZM30.0327 6.39187C29.9801 6.39187 29.9275 6.38357 29.8721 6.36973C29.5455 6.28114 29.3489 5.94342 29.4375 5.61676L30.0216 3.43816C30.1102 3.10874 30.4479 2.91496 30.7746 3.00078C31.104 3.08936 31.2978 3.42708 31.2092 3.75651L30.6278 5.93511C30.5531 6.20917 30.304 6.39187 30.0327 6.39187Z" fill="#0057FF"/>
</g>
<defs>
<clipPath id="clip0_22_65">
<rect width="50" height="50" fill="white"/>
</clipPath>
</defs>
</svg>
