<svg width="50" height="44" viewBox="0 0 50 44" fill="none" xmlns="http://www.w3.org/2000/svg">
<path d="M49.4319 42.5919H22.6767C22.3585 42.5919 22.1086 42.3682 22.1086 42.0835C22.1086 41.7988 22.3585 41.5752 22.6767 41.5752H48.8639V31.9872C48.8639 27.8287 45.092 24.453 40.4453 24.453H37.9686L33.7764 28.2862C33.6742 28.3879 33.5265 28.4387 33.3674 28.4387C33.2083 28.4387 33.072 28.3879 32.9584 28.2862L28.7662 24.453H26.2895C23.6423 24.453 21.1202 25.5918 19.5296 27.5135C19.3479 27.7371 18.9843 27.788 18.7344 27.6151C18.4844 27.4525 18.4276 27.1271 18.6208 26.9034C20.4272 24.7276 23.2901 23.4363 26.2895 23.4363H29.0048C29.1525 23.4363 29.3001 23.4871 29.4138 23.5888L33.3674 27.2084L37.3211 23.5888C37.4233 23.4871 37.571 23.4363 37.73 23.4363H40.4453C45.7169 23.4363 50 27.2694 50 31.9872V42.0835C50 42.3682 49.75 42.5919 49.4319 42.5919Z" fill="#0057FF"/>
<path d="M29.0048 24.4531C28.6866 24.4531 28.4367 24.2294 28.4367 23.9447V20.4267C28.4367 20.142 28.6866 19.9183 29.0048 19.9183C29.3229 19.9183 29.5728 20.142 29.5728 20.4267V23.9447C29.5728 24.2294 29.3229 24.4531 29.0048 24.4531ZM37.73 24.4531C37.4119 24.4531 37.162 24.2294 37.162 23.9447V20.5996C37.162 20.3149 37.4119 20.0912 37.73 20.0912C38.0482 20.0912 38.2981 20.3149 38.2981 20.5996V23.9447C38.2981 24.2294 38.0482 24.4531 37.73 24.4531Z" fill="#0057FF"/>
<path d="M33.481 22.4399C29.6069 22.4298 25.392 19.654 25.2443 13.5738C25.2329 13.2892 25.4829 13.0655 25.801 13.0553H25.8123C26.1191 13.0553 26.369 13.279 26.3804 13.5535C26.5053 18.9525 30.1409 21.4232 33.4697 21.4232H33.481C36.7985 21.4232 40.434 18.9728 40.5817 13.5942C40.5931 13.3197 40.843 13.096 41.1497 13.096H41.1611C41.4792 13.1061 41.7178 13.34 41.7178 13.6145C41.5587 19.6845 37.3438 22.4399 33.481 22.4399Z" fill="#0057FF"/>
<path d="M41.1498 14.133C41.1043 14.133 41.0589 14.133 41.0134 14.1229C40.7635 14.072 40.5817 13.8687 40.5817 13.645C40.4567 9.94402 39.4342 8.5104 38.9684 8.0427C35.2079 9.99486 32.1632 8.95777 30.1182 8.26638C28.664 7.77834 28.1413 7.65633 27.8119 7.97152C27.8119 11.0014 26.3804 13.6755 26.3122 13.7873C26.2213 13.95 26.0509 14.0517 25.8464 14.072C25.6533 14.0924 25.4488 14.011 25.3352 13.8687C23.0743 11.0828 22.9039 7.98169 24.8694 5.14495C27.187 1.79983 32.0382 -0.365852 35.9237 0.20353C38.639 0.610231 40.5249 2.27771 41.2634 4.90093C42.9448 6.08036 43.5356 8.00202 42.9789 10.4626C42.5699 12.3029 41.6724 13.7975 41.6269 13.8687C41.5474 14.0314 41.3543 14.133 41.1498 14.133ZM34.6171 1.12878C31.3906 1.12878 27.721 2.97926 25.8578 5.68383C24.3354 7.88001 24.29 10.2592 25.7101 12.4859C26.1304 11.4692 26.7212 9.68983 26.6871 7.81901C26.6871 7.71733 26.7212 7.61566 26.778 7.53432C27.6415 6.34472 29.0389 6.82259 30.5272 7.3208C32.5381 8.00203 35.2875 8.92727 38.7299 6.98527C38.9003 6.8836 39.1275 6.8836 39.3093 6.9751C39.5024 7.07678 40.9793 7.92068 41.5247 11.4793C42.1723 9.6695 42.6153 7.02594 40.434 5.62282C40.3204 5.55165 40.2409 5.43981 40.2068 5.32796C39.4456 2.36921 37.3552 1.4643 35.7305 1.22028C35.3783 1.14911 35.0034 1.12878 34.6171 1.12878ZM42.9789 42.592C42.6608 42.592 42.4108 42.3683 42.4108 42.0836V31.9059C42.4108 31.6212 42.6608 31.3975 42.9789 31.3975C43.297 31.3975 43.5469 31.6212 43.5469 31.9059V42.0836C43.5469 42.3683 43.297 42.592 42.9789 42.592ZM30.4704 30.9806H30.4136C30.2431 30.9705 30.0954 30.8891 30.0046 30.757L25.0398 24.2599C24.858 24.026 24.9262 23.7109 25.1875 23.5583C25.4488 23.3957 25.801 23.4567 25.9714 23.6905L30.5613 29.6894L32.9812 27.5745C33.2084 27.3813 33.5606 27.3813 33.7878 27.5847C34.0037 27.788 34.0037 28.1032 33.7764 28.3066L30.868 30.8485C30.7544 30.9298 30.6181 30.9806 30.4704 30.9806Z" fill="#0057FF"/>
<path d="M36.2758 30.9806C36.1281 30.9806 35.9805 30.9298 35.8782 30.8383L32.9698 28.2964C32.7426 28.1032 32.7426 27.7778 32.9584 27.5745C33.1743 27.3711 33.5378 27.3711 33.7651 27.5643L36.185 29.6792L40.7748 23.6803C40.9566 23.4465 41.3088 23.3855 41.5587 23.5481C41.8087 23.7108 41.8882 24.026 41.7064 24.2497L36.7416 30.7467C36.6508 30.8688 36.4917 30.9501 36.3326 30.9704C36.3099 30.9806 36.2986 30.9806 36.2758 30.9806Z" fill="#0057FF"/>
<path d="M34.174 31.8042H32.5721C32.3676 31.8042 32.1745 31.7025 32.0722 31.5398L31.027 29.791C30.8793 29.547 30.9816 29.2318 31.2542 29.0996C31.5269 28.9674 31.8791 29.0589 32.0268 29.303L32.913 30.7773H33.8446L34.7307 29.303C34.8784 29.0589 35.2192 28.9674 35.5033 29.0996C35.7759 29.2318 35.8782 29.5368 35.7305 29.791L34.6853 31.5398C34.5717 31.7025 34.3785 31.8042 34.174 31.8042Z" fill="#0057FF"/>
<path d="M30.9589 42.5919H30.8793C30.5726 42.5513 30.3454 42.2971 30.3908 42.0225L31.9927 31.2348C32.0382 30.9603 32.3222 30.7569 32.6289 30.7976C32.9357 30.8383 33.1629 31.0924 33.1175 31.367L31.5156 42.1547C31.4928 42.4089 31.2429 42.5919 30.9589 42.5919ZM35.776 42.5919C35.4919 42.5919 35.2533 42.4089 35.2079 42.1547L33.606 31.367C33.5606 31.0924 33.7878 30.8281 34.0945 30.7976C34.4013 30.7569 34.6967 30.9603 34.7307 31.2348L36.3326 42.0225C36.3781 42.2971 36.1509 42.5614 35.8441 42.5919H35.776ZM19.6319 43.7002H4.96478C2.22677 43.7002 0 41.7073 0 39.257V31.1433C0 28.6929 2.22677 26.7001 4.96478 26.7001H19.6319C22.3699 26.7001 24.5967 28.6929 24.5967 31.1433V39.257C24.5967 41.7073 22.3699 43.7002 19.6319 43.7002ZM4.96478 27.7168C2.85162 27.7168 1.13611 29.2521 1.13611 31.1433V39.257C1.13611 41.1481 2.85162 42.6834 4.96478 42.6834H19.6319C21.7451 42.6834 23.4606 41.1481 23.4606 39.257V31.1433C23.4606 29.2521 21.7451 27.7168 19.6319 27.7168H4.96478Z" fill="#0057FF"/>
<path d="M5.81686 43.7003C5.49875 43.7003 5.24881 43.4766 5.24881 43.1919V38.1081H0.568053C0.249943 38.1081 0 37.8845 0 37.5998C0 37.3151 0.249943 37.0914 0.568053 37.0914H5.81686C6.13497 37.0914 6.38491 37.3151 6.38491 37.5998V43.1919C6.38491 43.4766 6.12361 43.7003 5.81686 43.7003ZM18.7798 43.7003C18.4617 43.7003 18.2118 43.4766 18.2118 43.1919V37.5998C18.2118 37.3151 18.4617 37.0914 18.7798 37.0914H24.0286C24.3467 37.0914 24.5967 37.3151 24.5967 37.5998C24.5967 37.8845 24.3467 38.1081 24.0286 38.1081H19.3479V43.1919C19.3479 43.4766 19.0979 43.7003 18.7798 43.7003ZM24.0286 34.3767H14.5194C14.2013 34.3767 13.9514 34.153 13.9514 33.8683C13.9514 33.5836 14.2013 33.3599 14.5194 33.3599H24.0286C24.3467 33.3599 24.5967 33.5836 24.5967 33.8683C24.5967 34.153 24.3354 34.3767 24.0286 34.3767ZM10.0886 34.3767H0.568053C0.249943 34.3767 0 34.153 0 33.8683C0 33.5836 0.249943 33.3599 0.568053 33.3599H10.0886C10.4067 33.3599 10.6567 33.5836 10.6567 33.8683C10.6567 34.153 10.3954 34.3767 10.0886 34.3767ZM17.4051 27.7169C17.087 27.7169 16.8371 27.4932 16.8371 27.2086V25.1242C16.8371 24.26 16.0418 23.5482 15.0761 23.5482H9.52056C8.55487 23.5482 7.7596 24.26 7.7596 25.1242V27.2086C7.7596 27.4932 7.50966 27.7169 7.19155 27.7169C6.87344 27.7169 6.62349 27.4932 6.62349 27.2086V25.1242C6.62349 23.6906 7.91865 22.5315 9.52056 22.5315H15.0648C16.6667 22.5315 17.9618 23.6906 17.9618 25.1242V27.2086C17.9732 27.4932 17.7119 27.7169 17.4051 27.7169Z" fill="#0057FF"/>
<path d="M12.2927 36.3592C10.7589 36.3592 9.50922 35.2407 9.50922 33.8681C9.50922 32.4955 10.7589 31.3771 12.2927 31.3771C13.8264 31.3771 15.0761 32.4955 15.0761 33.8681C15.0761 35.2407 13.8378 36.3592 12.2927 36.3592ZM12.2927 32.3938C11.3838 32.3938 10.6453 33.0547 10.6453 33.8681C10.6453 34.6815 11.3838 35.3424 12.2927 35.3424C13.2016 35.3424 13.94 34.6815 13.94 33.8681C13.94 33.0547 13.2016 32.3938 12.2927 32.3938Z" fill="#0057FF"/>
</svg>
