<svg width="50" height="50" viewBox="0 0 50 50" fill="none" xmlns="http://www.w3.org/2000/svg">
<path d="M7.6 36.1112C7.44444 36.1112 7.28889 36.0889 7.14444 36.0445L1.82222 34.5667C1.37777 34.4445 1.01111 34.1556 0.777774 33.7445C0.555552 33.3445 0.499996 32.8667 0.622218 32.4223L4.73333 18.1556C4.98889 17.2556 5.94444 16.7223 6.85555 16.9778L12.1778 18.4556C12.6222 18.5778 13 18.8667 13.2222 19.2778C13.4444 19.6889 13.5 20.1556 13.3778 20.6001L9.26666 34.8667C9.04444 35.6112 8.34444 36.1112 7.6 36.1112ZM7.43333 34.9778C7.75555 35.0667 8.08888 34.8778 8.18888 34.5556L12.3 20.2889C12.3444 20.1334 12.3222 19.9667 12.2444 19.8223C12.1667 19.6778 12.0333 19.5778 11.8778 19.5334L6.55555 18.0445C6.23333 17.9556 5.9 18.1445 5.8 18.4667L1.68888 32.7334C1.64444 32.8889 1.66666 33.0556 1.74444 33.2001C1.82222 33.3445 1.95555 33.4445 2.11111 33.4889L7.43333 34.9778Z" fill="#0057FF"/>
<path d="M8.31111 23.8334C8.14444 23.8334 7.97778 23.8112 7.81111 23.7667C7.33333 23.6334 6.93333 23.3223 6.68889 22.8889C6.44444 22.4556 6.37778 21.9556 6.51111 21.4778C6.78889 20.4889 7.82222 19.9112 8.81111 20.1778C9.8 20.4445 10.3778 21.4889 10.1111 22.4778C9.97778 22.9556 9.66666 23.3556 9.23333 23.6001C8.93333 23.7556 8.62222 23.8334 8.31111 23.8334ZM8.3 21.2112C8.16666 21.2112 8.04444 21.2445 7.93333 21.3112C7.75555 21.4112 7.63333 21.5667 7.57778 21.7667C7.46666 22.1667 7.7 22.5778 8.1 22.6889C8.28889 22.7445 8.5 22.7223 8.67778 22.6223C8.85555 22.5223 8.97778 22.3667 9.03333 22.1667C9.14444 21.7667 8.91111 21.3556 8.51111 21.2445C8.43333 21.2223 8.36666 21.2112 8.3 21.2112ZM42.4 36.1112C41.6556 36.1112 40.9556 35.6223 40.7444 34.8667L36.6333 20.6001C36.5111 20.1556 36.5556 19.6889 36.7889 19.2778C37.0222 18.8667 37.3889 18.5778 37.8333 18.4556L43.1556 16.9778C44.0667 16.7223 45.0111 17.2556 45.2778 18.1556L49.3889 32.4223C49.5111 32.8667 49.4667 33.3334 49.2333 33.7445C49.0111 34.1445 48.6333 34.4445 48.1889 34.5667L42.8667 36.0445C42.7111 36.0889 42.5556 36.1112 42.4 36.1112ZM43.6111 18.0223C43.5556 18.0223 43.5 18.0334 43.4444 18.0445L38.1222 19.5223C37.9667 19.5667 37.8333 19.6667 37.7556 19.8112C37.6778 19.9556 37.6556 20.1223 37.7 20.2778L41.8111 34.5445C41.9 34.8667 42.2444 35.0556 42.5667 34.9667L47.8889 33.4889C48.0444 33.4445 48.1778 33.3445 48.2556 33.2001C48.3333 33.0556 48.3556 32.8889 48.3111 32.7334L44.2 18.4667C44.1222 18.2001 43.8667 18.0223 43.6111 18.0223Z" fill="#0057FF"/>
<path d="M41.6556 23.8334C40.8444 23.8334 40.0889 23.2889 39.8556 22.4667C39.7222 21.9889 39.7889 21.4889 40.0222 21.0556C40.2667 20.6223 40.6667 20.3112 41.1444 20.1778C42.1333 19.9001 43.1667 20.489 43.4444 21.4778C43.7222 22.4667 43.1333 23.5001 42.1444 23.7778C41.9889 23.8112 41.8222 23.8334 41.6556 23.8334ZM41.6556 21.2112C41.5889 21.2112 41.5222 21.2223 41.4556 21.2445C41.2667 21.3001 41.1 21.4223 41 21.6001C40.9 21.7778 40.8778 21.9778 40.9333 22.1667C40.9889 22.3556 41.1111 22.5223 41.2889 22.6223C41.4667 22.7223 41.6667 22.7445 41.8556 22.6889C42.2556 22.5778 42.4889 22.1667 42.3778 21.7667C42.2889 21.4334 41.9889 21.2112 41.6556 21.2112ZM35.8333 36.1778C35.5333 36.1778 35.2889 35.9445 35.2778 35.6445C35.2667 35.3334 35.5 35.0778 35.8111 35.0667C35.8444 35.0667 38.5889 34.9445 40.7333 33.4556C40.9889 33.2778 41.3333 33.3445 41.5111 33.6001C41.6889 33.8556 41.6222 34.2001 41.3667 34.3778C38.9444 36.0556 35.9778 36.1778 35.8556 36.1778H35.8333ZM10.7667 35.5334C10.6222 35.5334 10.4778 35.4778 10.3778 35.3667L8.73333 33.7223C8.52222 33.5001 8.52222 33.1556 8.73333 32.9334C8.94444 32.7112 9.3 32.7112 9.52222 32.9334L11.1667 34.5778C11.3778 34.8001 11.3778 35.1445 11.1667 35.3667C11.0556 35.4778 10.9111 35.5334 10.7667 35.5334ZM21.6778 45.5001C20.9556 45.5001 20.2222 45.2223 19.6778 44.6667L18.7333 43.7223C18.5222 43.5001 18.5222 43.1556 18.7333 42.9334C18.9444 42.7112 19.3 42.7112 19.5222 42.9334L20.4667 43.8778C21.1333 44.5445 22.2333 44.5445 22.9 43.8778C23.2222 43.5556 23.4 43.1223 23.4 42.6667C23.4 42.4445 23.3556 42.2223 23.2778 42.0223C23.1889 41.8112 23.0667 41.6223 22.9 41.4556C22.6889 41.2334 22.6889 40.889 22.9 40.6667C23.1111 40.4445 23.4667 40.4445 23.6889 40.6667L25.8 42.7778C26.4667 43.4445 27.5667 43.4445 28.2333 42.7778C28.5556 42.4556 28.7333 42.0223 28.7333 41.5556C28.7333 41.089 28.5556 40.6667 28.2333 40.3334C28.0111 40.1112 28.0111 39.7667 28.2333 39.5445C28.4556 39.3223 28.8 39.3223 29.0222 39.5445C29.5556 40.0778 29.8556 40.7889 29.8556 41.5445C29.8556 42.3001 29.5667 43.0112 29.0222 43.5445C27.9222 44.6445 26.1222 44.6445 25.0222 43.5445L24.5 43.0223C24.4222 43.6334 24.1444 44.2112 23.6889 44.6556C23.1222 45.2223 22.4 45.5001 21.6778 45.5001Z" fill="#0057FF"/>
<path d="M31.1444 42.0889C30.4222 42.0889 29.7 41.8111 29.1444 41.2556L23.9667 36.0778C23.7556 35.8556 23.7556 35.5111 23.9667 35.2889C24.1778 35.0667 24.5333 35.0667 24.7556 35.2889L29.9333 40.4667C30.6 41.1334 31.7 41.1334 32.3667 40.4667C33.0333 39.8 33.0333 38.7 32.3667 38.0334L27.1889 32.8556C26.9667 32.6334 26.9667 32.2889 27.1889 32.0667C27.4111 31.8445 27.7556 31.8445 27.9778 32.0667L33.1556 37.2445C34.2556 38.3445 34.2556 40.1445 33.1556 41.2445C32.6 41.8222 31.8667 42.0889 31.1444 42.0889Z" fill="#0057FF"/>
<path d="M33.5889 38.0999C32.8333 38.0999 32.1222 37.8111 31.5889 37.2666C31.3667 37.0444 31.3667 36.6999 31.5889 36.4777C31.8111 36.2555 32.1556 36.2555 32.3778 36.4777C32.7 36.7999 33.1333 36.9777 33.6 36.9777C34.0667 36.9777 34.4889 36.7999 34.8222 36.4777C35.0778 36.2222 35.2444 35.8888 35.3 35.5333C35.3111 35.4444 35.3222 35.3555 35.3222 35.2555C35.3222 34.7999 35.1444 34.3666 34.8222 34.0333L26.5889 25.7999C25.9889 25.1999 25.1111 24.9777 24.3 25.1999C23.8778 25.3222 23.5111 25.5444 23.2111 25.8666L20.6333 28.6666C20.6222 28.6666 20.6222 28.6777 20.6222 28.6777C19.4111 29.8888 17.4556 29.8888 16.2444 28.6777C15.2778 27.7111 15.0556 26.2444 15.7 25.0333C16.5222 23.4888 17.9444 21.3555 20.0556 20.0333C20.0667 20.0333 20.0667 20.0222 20.0778 20.0222C21.8111 18.9333 23.7111 18.5777 25.7222 18.9333C26.0222 18.9777 30.2111 19.6222 33.5 21.8666L37.0556 20.3333C37.3333 20.2111 37.6667 20.3444 37.7889 20.6222C37.9111 20.8999 37.7778 21.2333 37.5 21.3555L33.6556 23.0111C33.4778 23.0888 33.2667 23.0666 33.1111 22.9555C29.9667 20.6888 25.6 20.0333 25.5556 20.0333H25.5333C23.7889 19.7111 22.1444 20.0333 20.6556 20.9777C20.6444 20.9777 20.6444 20.9888 20.6333 20.9888C18.7444 22.1888 17.4444 24.1333 16.6889 25.5555C16.2778 26.3333 16.4222 27.2666 17.0333 27.8888C17.8 28.6555 19.0556 28.6666 19.8333 27.8999L22.3889 25.1222C22.8222 24.6555 23.3778 24.3111 23.9889 24.1333C25.1889 23.7999 26.4889 24.1333 27.3667 25.0111L35.6 33.2444C36.1333 33.7777 36.4333 34.4888 36.4333 35.2444C36.4333 35.4 36.4222 35.5555 36.4 35.6999C36.3111 36.2888 36.0333 36.8222 35.6111 37.2555C35.0556 37.7999 34.3444 38.0999 33.5889 38.0999Z" fill="#0057FF"/>
<path d="M12.6333 21.7777C12.3778 21.7777 12.1556 21.6 12.0889 21.3444C12.0222 21.0444 12.2111 20.7444 12.5111 20.6777C16.1222 19.8555 20.1889 19.9555 20.3667 19.9666C20.6667 19.9777 20.9111 20.2222 20.9111 20.5222C20.9111 20.8333 20.6556 21.0889 20.3444 21.0777C20.1778 21.0777 16.2444 20.9666 12.7667 21.7666C12.7111 21.7666 12.6778 21.7777 12.6333 21.7777ZM12.0556 37.7444C11.5111 37.7444 11 37.5333 10.6111 37.1444C10.2222 36.7555 10.0111 36.2444 10.0111 35.7C10.0111 35.1555 10.2222 34.6444 10.6111 34.2555L12.3667 32.5C13.1556 31.7111 14.4556 31.7111 15.2444 32.5C15.6333 32.8889 15.8444 33.4 15.8444 33.9444C15.8444 34.4889 15.6333 35 15.2444 35.3889C15.0333 35.6111 14.6778 35.6111 14.4556 35.3889C14.2444 35.1666 14.2444 34.8222 14.4556 34.6C14.6333 34.4222 14.7222 34.1889 14.7222 33.9444C14.7222 33.7 14.6222 33.4666 14.4556 33.2889C14.0889 32.9222 13.5111 32.9222 13.1444 33.2889L11.3889 35.0444C11.2111 35.2222 11.1222 35.4555 11.1222 35.7C11.1222 35.9444 11.2222 36.1777 11.3889 36.3555C11.5667 36.5333 11.8 36.6222 12.0444 36.6222C12.2889 36.6222 12.5222 36.5222 12.7 36.3555C12.9111 36.1333 13.2667 36.1333 13.4889 36.3555C13.7 36.5777 13.7 36.9222 13.4889 37.1444C13.1111 37.5333 12.6 37.7444 12.0556 37.7444Z" fill="#0057FF"/>
<path d="M13.5333 40.4666C13.0111 40.4666 12.4889 40.2666 12.0889 39.8666C11.7 39.4777 11.4889 38.9666 11.4889 38.4222C11.4889 37.8777 11.7 37.3666 12.0889 36.9777L14.4667 34.6C15.2556 33.8111 16.5556 33.8111 17.3444 34.6C17.7333 34.9889 17.9444 35.5 17.9444 36.0444C17.9444 36.5889 17.7333 37.1 17.3444 37.4889C17.1333 37.7111 16.7778 37.7111 16.5556 37.4889C16.3444 37.2666 16.3444 36.9222 16.5556 36.7C16.7333 36.5222 16.8222 36.2889 16.8222 36.0444C16.8222 35.8 16.7222 35.5666 16.5556 35.3889C16.1889 35.0222 15.6 35.0222 15.2444 35.3889L12.8778 37.7777C12.7 37.9555 12.6111 38.1889 12.6111 38.4333C12.6111 38.6777 12.7111 38.9111 12.8778 39.0889C13.2444 39.4555 13.8222 39.4555 14.1889 39.0889C14.4 38.8666 14.7556 38.8666 14.9778 39.0889C15.2 39.3111 15.1889 39.6555 14.9778 39.8777C14.5778 40.2666 14.0556 40.4666 13.5333 40.4666Z" fill="#0057FF"/>
<path d="M14.9333 43.2555C14.3889 43.2555 13.8778 43.0444 13.4889 42.6555C13.1 42.2666 12.8889 41.7555 12.8889 41.2111C12.8889 40.6666 13.1 40.1555 13.4889 39.7666L16.5556 36.6999C17.3444 35.9111 18.6444 35.9111 19.4333 36.6999C19.8222 37.0888 20.0333 37.5999 20.0333 38.1444C20.0333 38.6888 19.8222 39.1999 19.4333 39.5888L16.3667 42.6555C15.9889 43.0444 15.4778 43.2555 14.9333 43.2555ZM18.0111 37.2222C17.7778 37.2222 17.5333 37.3111 17.3556 37.4888L14.2778 40.5555C14.1 40.7333 14.0111 40.9666 14.0111 41.2111C14.0111 41.4555 14.1111 41.6888 14.2778 41.8666C14.4556 42.0444 14.6889 42.1333 14.9333 42.1333C15.1778 42.1333 15.4111 42.0333 15.5889 41.8666L18.6556 38.7999C18.8333 38.6222 18.9222 38.3888 18.9222 38.1444C18.9222 37.8999 18.8222 37.6666 18.6556 37.4888C18.4778 37.3111 18.2444 37.2222 18.0111 37.2222Z" fill="#0057FF"/>
<path d="M17.9222 44.4556C17.3778 44.4556 16.8667 44.2444 16.4778 43.8556C16.0889 43.4667 15.8778 42.9556 15.8778 42.4111C15.8778 41.8667 16.0889 41.3556 16.4778 40.9667C16.6889 40.7444 17.0444 40.7444 17.2667 40.9667C17.4778 41.1889 17.4778 41.5333 17.2667 41.7556C17.0889 41.9333 17 42.1667 17 42.4111C17 42.6556 17.1 42.8889 17.2667 43.0667C17.4444 43.2444 17.6778 43.3333 17.9222 43.3333C18.1667 43.3333 18.4 43.2333 18.5778 43.0667L20.7556 40.8889C21.1222 40.5222 21.1222 39.9444 20.7556 39.5778C20.3889 39.2111 19.8111 39.2111 19.4444 39.5778C19.2333 39.8 18.8778 39.8 18.6556 39.5778C18.4444 39.3556 18.4444 39.0111 18.6556 38.7889C19.4444 38 20.7444 38 21.5333 38.7889C22.3222 39.5778 22.3222 40.8778 21.5333 41.6667L19.3556 43.8444C18.9778 44.2444 18.4667 44.4556 17.9222 44.4556ZM30.6222 21.5111C30.5111 21.5111 30.3889 21.4778 30.2889 21.4C30.0444 21.2111 30 20.8667 30.1778 20.6222C31.7778 18.5222 32.6111 15.9889 32.6111 13.3333V8.61111L25 5.65556L17.3889 8.61111V13.3333C17.3889 15.8111 18.1222 18.1889 19.5222 20.2C19.7 20.4556 19.6333 20.8 19.3778 20.9778C19.1222 21.1556 18.7778 21.0889 18.6 20.8333C17.0778 18.6333 16.2667 16.0333 16.2667 13.3333V8.23333C16.2667 8 16.4111 7.8 16.6222 7.71111L24.7889 4.53333C24.9222 4.48889 25.0667 4.48889 25.1889 4.53333L33.3556 7.71111C33.5667 7.8 33.7111 8 33.7111 8.23333V13.3333C33.7111 16.2444 32.7889 18.9889 31.0444 21.3C30.9556 21.4444 30.7889 21.5111 30.6222 21.5111Z" fill="#0057FF"/>
<path d="M27.7667 20.5222C27.6333 20.5222 27.5 20.4778 27.3889 20.3778C27.1667 20.1667 27.1444 19.8222 27.3555 19.5889C28.9222 17.8778 29.7889 15.6555 29.7889 13.3333V10.5555L25 8.68888L20.2111 10.5555V13.3333C20.2111 15.5444 21 17.6889 22.4444 19.3667C22.6444 19.6 22.6222 19.9555 22.3889 20.1555C22.1555 20.3555 21.8 20.3333 21.6 20.1C19.9872 18.2186 19.1004 15.8225 19.1 13.3444V10.1667C19.1 9.93333 19.2444 9.73333 19.4555 9.64444L24.8 7.56666C24.9333 7.52221 25.0778 7.52221 25.2 7.56666L30.5444 9.64444C30.7555 9.73333 30.9 9.93333 30.9 10.1667V13.3333C30.9 15.9333 29.9333 18.4222 28.1778 20.3444C28.0555 20.4667 27.9111 20.5222 27.7667 20.5222Z" fill="#0057FF"/>
<path d="M23.9111 16.9667C23.7667 16.9667 23.6222 16.9112 23.5222 16.8001L21.9778 15.2556C21.7667 15.0445 21.7667 14.6889 21.9778 14.4667C22.1889 14.2556 22.5444 14.2556 22.7667 14.4667L23.9222 15.6223L27.2556 12.2889C27.4778 12.0778 27.8222 12.0778 28.0444 12.2889C28.2667 12.5001 28.2667 12.8556 28.0444 13.0778L24.3222 16.8001C24.2 16.9112 24.0556 16.9667 23.9111 16.9667Z" fill="#0057FF"/>
</svg>
