<svg width="116" height="50" viewBox="0 0 116 50" fill="none" xmlns="http://www.w3.org/2000/svg">
<path d="M13.6747 36.4078C5.53183 36.4078 0 30.4943 0 23.0362C0 15.4899 5.88587 9.53222 13.4534 9.53222C21.1537 9.53222 26.7741 15.1809 26.7741 22.8155V25.0662H5.70885C6.54969 28.729 9.42624 31.1562 13.6747 31.1562C17.038 31.1562 19.6048 29.391 20.844 26.6108L25.7562 29.4351C23.4992 33.6275 19.5163 36.4078 13.6747 36.4078ZM13.4534 14.7838C9.86879 14.7838 7.08075 16.902 6.01864 20.0794H20.7112C19.8261 16.5931 17.1708 14.7838 13.4534 14.7838Z" fill="#B1B6BE"/>
<path d="M28.1232 35.8782V10.0618H34.1418V35.8782H28.1232ZM27.3708 3.7511C27.3708 1.50044 28.8312 0 31.1325 0C33.478 0 34.8941 1.50044 34.8941 3.7511C34.8941 6.00177 33.478 7.45808 31.1325 7.45808C28.6985 7.45808 27.3708 6.00177 27.3708 3.7511Z" fill="#B1B6BE"/>
<path d="M56.6173 35.4369V32.436C54.7143 34.9073 51.6608 36.4078 48.1646 36.4078C41.9247 36.4078 35.4193 31.4651 35.4193 22.9921C35.4193 14.4307 41.7035 9.53222 48.2532 9.53222C51.6608 9.53222 54.6701 11.0327 56.573 13.3716V10.0618H62.5474V35.2162C62.5474 42.4537 57.9007 48.3672 49.1825 48.3672C42.4558 48.3672 38.2516 45.2339 35.9061 40.9532L41.2167 37.7317C43.1196 41.218 45.1553 42.895 49.271 42.895C53.785 42.895 56.6173 39.3645 56.6173 35.4369ZM49.1382 30.9356C53.608 30.9356 56.8828 27.361 56.8828 22.9038C56.8828 18.4907 53.608 14.9603 49.1382 14.9603C44.7128 14.9603 41.3052 18.4466 41.3052 22.9038C41.3052 27.4051 44.7128 30.9356 49.1382 30.9356Z" fill="#B1B6BE"/>
<path d="M77.5432 36.4078C69.4003 36.4078 63.8685 30.4943 63.8685 23.0362C63.8685 15.4899 69.7544 9.53222 77.3219 9.53222C85.0222 9.53222 90.6426 15.1809 90.6426 22.8155V25.0662H69.5773C70.4182 28.729 73.2947 31.1562 77.5432 31.1562C80.9065 31.1562 83.4733 29.391 84.7124 26.6108L89.6247 29.4351C87.3677 33.6275 83.3848 36.4078 77.5432 36.4078ZM77.3219 14.7838C73.7373 14.7838 70.9492 16.902 69.8871 20.0794H84.5797C83.6946 16.5931 81.0393 14.7838 77.3219 14.7838Z" fill="#B1B6BE"/>
<path d="M91.9916 35.8782V10.0618H97.9218V13.2392C99.6477 10.9885 102.303 9.53222 105.666 9.53222C112.172 9.53222 115.933 13.5481 115.933 20.5649V35.8782H109.871V21.1827C109.871 17.1668 107.923 14.6955 104.029 14.6955C100.621 14.6955 97.966 17.1668 97.966 21.7123V35.8782H91.9916Z" fill="#B1B6BE"/>
<path d="M65.6808 49.8528V39.1144H67.687V49.8528H65.6808Z" fill="#B1B6BE"/>
<path d="M74.7304 49.8528L71.1163 39.1144H73.1963L75.7483 46.7931L78.2856 39.1144H80.3655L76.7514 49.8528H74.7304Z" fill="#B1B6BE"/>
<path d="M88.2621 49.9999C85.1938 49.9999 82.7598 47.5433 82.7598 44.4836C82.7598 41.4386 85.1938 38.9673 88.2621 38.9673C91.3304 38.9673 93.7792 41.4386 93.7792 44.4836C93.7792 47.5433 91.3304 49.9999 88.2621 49.9999ZM88.2621 48.0288C90.2241 48.0288 91.7877 46.4401 91.7877 44.4836C91.7877 42.5272 90.2241 40.9385 88.2621 40.9385C86.3002 40.9385 84.7512 42.5272 84.7512 44.4836C84.7512 46.4401 86.3002 48.0288 88.2621 48.0288Z" fill="#B1B6BE"/>
<path d="M99.2231 49.8528H97.2169V39.1144H100.669C103.206 39.1144 104.696 40.6295 104.696 42.8508C104.696 44.1453 104.062 45.3515 102.881 45.9841L105.035 49.8528H102.749L101.023 46.5725H99.2231V49.8528ZM99.2231 44.7337H100.492C102.144 44.7337 102.69 43.8364 102.69 42.7772C102.69 41.674 102.026 40.9826 100.492 40.9826H99.2231V44.7337Z" fill="#B1B6BE"/>
<path d="M110.527 49.8528V44.7631L107.105 39.1144H109.318L111.545 42.8361L113.787 39.1144H116L112.533 44.8072V49.8528H110.527Z" fill="#B1B6BE"/>
</svg>
