<svg width="50" height="45" viewBox="0 0 50 45" fill="none" xmlns="http://www.w3.org/2000/svg">
<path d="M29.6295 40.7141L28.0612 44.36C28.0122 44.474 27.9257 44.572 27.8132 44.6412C27.7006 44.7103 27.5673 44.7473 27.4308 44.7473H22.5691C22.4326 44.7473 22.2993 44.7103 22.1868 44.6412C22.0742 44.572 21.9877 44.474 21.9387 44.36L20.5025 41.0215C17.9871 40.5385 15.6179 39.6594 13.4488 38.4044L9.79367 39.8579C9.66879 39.9072 9.53015 39.9217 9.39592 39.8994C9.26169 39.8771 9.13813 39.819 9.04142 39.7327L5.60362 36.6561C5.50706 36.5697 5.44201 36.4592 5.41705 36.3391C5.39208 36.219 5.40838 36.0949 5.46378 35.9833L7.08703 32.7122C5.68556 30.7729 4.70284 28.6518 4.16222 26.3983L0.432813 25.1133C0.305419 25.0695 0.195871 24.9921 0.118607 24.8914C0.0413429 24.7906 -9.51556e-06 24.6713 1.64241e-09 24.5492V20.1982C-9.51556e-06 20.076 0.0413429 19.9567 0.118607 19.856C0.195871 19.7553 0.305419 19.6779 0.432813 19.6341L4.1627 18.349C4.70245 16.0968 5.68517 13.976 7.08751 12.036L5.46388 8.76411C5.40852 8.65245 5.39224 8.5284 5.41721 8.40831C5.44217 8.28821 5.5072 8.1777 5.60372 8.09132L9.04103 5.01468C9.13755 4.92815 9.26112 4.86986 9.39543 4.84752C9.52974 4.82517 9.66847 4.83982 9.79328 4.88953L13.4488 6.34303C15.6174 5.08801 17.9867 4.20888 20.5025 3.72583L21.9387 0.387432C21.9878 0.273405 22.0742 0.17535 22.1868 0.106189C22.2993 0.0370272 22.4327 4.87499e-06 22.5692 1.46987e-09H27.4309C27.5674 -8.51592e-06 27.7007 0.0369996 27.8132 0.106147C27.9258 0.175294 28.0123 0.273334 28.0613 0.387345L29.6299 4.03443C29.6619 4.10851 29.6772 4.18749 29.675 4.26686C29.6728 4.34624 29.6532 4.42445 29.6172 4.49702C29.5812 4.56959 29.5296 4.63511 29.4653 4.68981C29.401 4.74452 29.3252 4.78735 29.2424 4.81585C28.8954 4.93515 28.5034 4.7808 28.3693 4.46906L26.9669 1.2094H23.0332L21.6309 4.46906C21.5899 4.5645 21.5225 4.64906 21.435 4.71482C21.3475 4.78059 21.2428 4.82539 21.1307 4.84504C18.5327 5.30169 16.0961 6.20564 13.8887 7.53154C13.7939 7.58852 13.6845 7.62305 13.5707 7.63193C13.4569 7.64081 13.3425 7.62374 13.2381 7.58232L9.66848 6.16352L6.88742 8.65276L8.47238 11.8475C8.51866 11.9409 8.53772 12.0433 8.5278 12.1451C8.51788 12.247 8.47929 12.3449 8.41564 12.4297C6.93361 14.4044 5.92364 16.585 5.41329 18.9113C5.39133 19.0116 5.34126 19.1053 5.26778 19.1836C5.1943 19.2619 5.09981 19.3222 4.99317 19.3589L1.35137 20.6135V24.1338L4.99239 25.3885C5.09904 25.4251 5.19353 25.4855 5.26701 25.5638C5.34049 25.6421 5.39055 25.7358 5.41251 25.8361C5.92413 28.1636 6.9341 30.3446 8.41525 32.3184C8.4789 32.4033 8.51749 32.5012 8.52741 32.603C8.53733 32.7048 8.51827 32.8073 8.47199 32.9007L6.88751 36.0946L9.66896 38.5839L13.2383 37.1651C13.3427 37.1237 13.4571 37.1066 13.5709 37.1155C13.6847 37.1244 13.7941 37.1589 13.8889 37.2158C16.0967 38.5422 18.5333 39.446 21.1309 39.9023C21.243 39.922 21.3477 39.9668 21.4352 40.0326C21.5227 40.0983 21.5901 40.1829 21.6311 40.2783L23.0334 43.538H26.9669L28.3689 40.2795C28.5031 39.9676 28.8959 39.8126 29.242 39.9327C29.3248 39.9612 29.4005 40.004 29.4648 40.0588C29.5291 40.1135 29.5807 40.179 29.6166 40.2515C29.6526 40.3241 29.6723 40.4023 29.6745 40.4817C29.6767 40.561 29.6614 40.64 29.6295 40.7141ZM19.7535 30.152C19.8293 30.1932 19.9136 30.2206 20.0013 30.2327C20.089 30.2447 20.1785 30.2411 20.2647 30.2221C20.3509 30.2031 20.432 30.1691 20.5035 30.122C20.575 30.075 20.6353 30.0157 20.6812 29.9477C20.7271 29.8798 20.7577 29.8044 20.771 29.7259C20.7844 29.6474 20.7804 29.5673 20.7592 29.4902C20.738 29.4131 20.7 29.3405 20.6475 29.2766C20.5949 29.2126 20.5288 29.1585 20.4529 29.1174C17.7907 27.6766 16.2013 25.1558 16.2013 22.3737C16.2013 19.5916 17.7907 17.0708 20.4529 15.6299C20.5288 15.5889 20.5949 15.5348 20.6475 15.4708C20.7 15.4068 20.738 15.3342 20.7592 15.2571C20.7804 15.18 20.7844 15.1 20.771 15.0215C20.7577 14.943 20.7271 14.8676 20.6812 14.7997C20.6353 14.7317 20.5749 14.6725 20.5034 14.6254C20.432 14.5783 20.3508 14.5444 20.2647 14.5254C20.1785 14.5064 20.089 14.5028 20.0013 14.5148C19.9136 14.5268 19.8293 14.5542 19.7535 14.5953C16.683 16.2567 14.8499 19.1648 14.8499 22.3737C14.8499 25.5826 16.6829 28.4907 19.7535 30.152ZM50.0001 22.3737C50.0001 23.9248 48.5898 25.1869 46.8566 25.1869C45.3556 25.1869 44.0985 24.2395 43.7882 22.9784H25.6757V25.7259H32.5275C32.7065 25.7259 32.8786 25.7897 33.0052 25.9031L35.4946 28.1313H37.1726C37.4829 26.8701 38.74 25.9228 40.2411 25.9228C41.9743 25.9228 43.3846 27.1849 43.3846 28.736C43.3846 30.2872 41.9743 31.5493 40.2411 31.5493C38.7401 31.5493 37.483 30.6019 37.1726 29.3407H35.2148C35.0356 29.3407 34.8638 29.277 34.7371 29.1636L32.2477 26.9354H25.6757V29.6832H31.2325C31.4115 29.6832 31.5836 29.747 31.7102 29.8604L36.5253 34.1696C36.652 34.283 36.7232 34.4368 36.7232 34.5972V36.7557C37.5553 36.9203 38.3112 37.3813 38.7696 38.0918C39.1897 38.7426 39.3014 39.5008 39.0842 40.2263C38.8669 40.9522 38.3465 41.559 37.6193 41.9345C37.135 42.1849 36.5974 42.3128 36.0528 42.3128C35.7797 42.3128 35.5047 42.2806 35.2341 42.2156C34.423 42.0211 33.7451 41.5557 33.3255 40.9051C32.4589 39.5618 32.9749 37.8378 34.4758 37.0619C34.7548 36.9177 35.0571 36.813 35.3718 36.7513V34.8475L30.9527 30.8926H25.6757V35.2352C25.6757 35.3956 25.6045 35.5494 25.4778 35.6628C25.3511 35.7762 25.1792 35.8399 25 35.8399C16.7033 35.8399 9.95305 29.7989 9.95305 22.3737C9.95305 14.9485 16.7033 8.90744 25 8.90744C25.1792 8.90746 25.3511 8.97118 25.4778 9.08458C25.6045 9.19798 25.6757 9.35177 25.6757 9.51214V13.8548H30.9527L35.3718 9.89992V7.99248C35.0615 7.93095 34.7591 7.83184 34.4758 7.68536C32.9749 6.90945 32.4589 5.18545 33.3255 3.84224C33.7451 3.19148 34.423 2.72618 35.2341 2.53172C36.0449 2.33726 36.8921 2.43681 37.6192 2.81279C38.3464 3.18834 38.8663 3.79505 39.0836 4.52097C39.3013 5.24689 39.1896 6.00471 38.7695 6.65547C38.3499 7.30623 37.672 7.77154 36.8608 7.96643C36.8152 7.97736 36.769 7.9819 36.7231 7.9909V10.1501C36.7231 10.3103 36.6518 10.4643 36.5252 10.5777L31.7101 14.8869C31.5834 15.0003 31.4116 15.064 31.2324 15.064H25.6756V17.8119H32.0788L35.0199 15.1793C35.1466 15.066 35.3184 15.0022 35.4976 15.0022H37.1725C37.4828 13.7409 38.7399 12.7936 40.241 12.7936C41.9742 12.7936 43.3845 14.0557 43.3845 15.6069C43.3845 17.158 41.9742 18.4201 40.241 18.4201C38.74 18.4201 37.4829 17.4727 37.1725 16.2116H35.7774L32.8363 18.8442C32.7096 18.9575 32.5377 19.0212 32.3586 19.0213H25.6757V21.7688H43.7882C44.0984 20.5076 45.3556 19.5603 46.8566 19.5603C48.5898 19.5605 50.0001 20.8226 50.0001 22.3737ZM38.4489 15.6071C38.4489 16.4913 39.253 17.211 40.241 17.211C41.229 17.211 42.0331 16.4913 42.0331 15.6071C42.0331 14.7229 41.229 14.0033 40.241 14.0033C39.253 14.0033 38.4489 14.7228 38.4489 15.6071ZM35.1514 6.63826C35.5667 6.85238 36.0502 6.90989 36.5111 6.79811C36.7387 6.74416 36.9521 6.65034 37.1389 6.52207C37.3257 6.3938 37.4822 6.23364 37.5994 6.05086C37.7177 5.86872 37.7944 5.66738 37.8252 5.4585C37.8559 5.24962 37.84 5.03737 37.7784 4.83403C37.7181 4.63033 37.6133 4.43936 37.47 4.27218C37.3266 4.105 37.1477 3.96493 36.9434 3.86007C36.6721 3.71896 36.3638 3.64455 36.05 3.64438C35.8947 3.64438 35.7381 3.66291 35.5837 3.69987C35.3561 3.75382 35.1427 3.84764 34.9559 3.97591C34.7691 4.10418 34.6125 4.26434 34.4954 4.44712C34.0016 5.21272 34.2959 6.19576 35.1514 6.63826ZM24.3244 10.1313C17.085 10.4476 11.3044 15.8177 11.3044 22.3737C11.3044 28.9297 17.0851 34.2998 24.3244 34.616V10.1313ZM36.044 37.895C35.7405 37.895 35.433 37.9639 35.1514 38.1091C34.2959 38.5516 34.0015 39.5347 34.4956 40.3004C34.7348 40.6712 35.1216 40.937 35.5839 41.0476C36.0462 41.1582 36.5288 41.102 36.9435 40.8874C37.1478 40.7826 37.3268 40.6425 37.4702 40.4753C37.6136 40.3081 37.7185 40.1172 37.7789 39.9134C37.8403 39.7101 37.8561 39.4978 37.8252 39.2889C37.7944 39.0801 37.7177 38.8788 37.5994 38.6966C37.2678 38.1824 36.6642 37.895 36.044 37.895ZM38.4489 28.7359C38.4489 29.6201 39.253 30.3398 40.241 30.3398C41.229 30.3398 42.0331 29.6201 42.0331 28.7359C42.0331 27.8517 41.229 27.1321 40.241 27.1321C39.253 27.1321 38.4489 27.8517 38.4489 28.7359ZM48.6487 22.3737C48.6487 21.4895 47.8446 20.7699 46.8566 20.7699C45.8686 20.7699 45.0645 21.4895 45.0645 22.3737C45.0645 23.2579 45.8686 23.9775 46.8566 23.9775C47.8446 23.9775 48.6487 23.2579 48.6487 22.3737Z" fill="#0057FF"/>
</svg>
