<svg width="30" height="30" viewBox="0 0 30 30" fill="none" xmlns="http://www.w3.org/2000/svg">
    <path fill-rule="evenodd" clip-rule="evenodd" d="M27.1339 7.86611C27.622 8.35427 27.622 9.14572 27.1339 9.63389L17.1339 19.6339C16.6457 20.122 15.8542 20.122 15.3661 19.6339L11.6919 15.9598C11.4479 15.7156 11.0521 15.7156 10.8081 15.9598L4.63389 22.1339C4.14572 22.622 3.35427 22.622 2.86611 22.1339C2.37796 21.6458 2.37796 20.8542 2.86611 20.3661L10.3661 12.8661C10.8543 12.378 11.6457 12.378 12.1339 12.8661L15.808 16.5402C16.0521 16.7844 16.4479 16.7844 16.692 16.5402L25.3661 7.86611C25.8542 7.37796 26.6457 7.37796 27.1339 7.86611Z" fill="#1CC81E"/>
    <path fill-rule="evenodd" clip-rule="evenodd" d="M20 8.75C20 8.05965 20.5596 7.5 21.25 7.5H26.25C26.9404 7.5 27.5 8.05965 27.5 8.75V13.75C27.5 14.4404 26.9404 15 26.25 15C25.5596 15 25 14.4404 25 13.75V10.625C25 10.2798 24.7201 10 24.375 10H21.25C20.5596 10 20 9.44035 20 8.75Z" fill="#1CC81E"/>
    </svg>
    