<svg width="30" height="30" viewBox="0 0 30 30" fill="none" xmlns="http://www.w3.org/2000/svg">
    <path fill-rule="evenodd" clip-rule="evenodd" d="M27.1339 22.1339C27.622 21.6457 27.622 20.8543 27.1339 20.3661L17.1339 10.3661C16.6457 9.878 15.8542 9.878 15.3661 10.3661L11.6919 14.0402C11.4479 14.2844 11.0521 14.2844 10.8081 14.0402L4.63389 7.86613C4.14572 7.378 3.35427 7.378 2.86611 7.86613C2.37796 8.35425 2.37796 9.14575 2.86611 9.63387L10.3661 17.1339C10.8543 17.622 11.6457 17.622 12.1339 17.1339L15.808 13.4598C16.0521 13.2156 16.4479 13.2156 16.692 13.4598L25.3661 22.1339C25.8542 22.622 26.6457 22.622 27.1339 22.1339Z" fill="#EF6D5B"/>
    <path fill-rule="evenodd" clip-rule="evenodd" d="M20 21.25C20 21.9403 20.5596 22.5 21.25 22.5H26.25C26.9404 22.5 27.5 21.9403 27.5 21.25V16.25C27.5 15.5596 26.9404 15 26.25 15C25.5596 15 25 15.5596 25 16.25V19.375C25 19.7202 24.7201 20 24.375 20H21.25C20.5596 20 20 20.5596 20 21.25Z" fill="#EF6D5B"/>
    </svg>
    